<svg id="Layer_1" data-name="Layer 1" xmlns="http://www.w3.org/2000/svg" viewBox="0 0 595.45 32.5"><defs><style>.cls-1{fill:#c1282d;}</style></defs><path class="cls-1" d="M334.68,36c-11,0-16.48-7.86-21.35-14.79S304.44,8.61,296.12,8.61s-12.44,5.85-17.21,12.64S268.51,36,257.55,36s-16.48-7.86-21.35-14.79S227.31,8.61,219,8.61c-6.53,0-10.59,3.64-14.68,9.11a11.54,11.54,0,0,1-9.19,4.6H-.09V17.25H195.12a6.43,6.43,0,0,0,5.13-2.57c4.33-5.79,9.6-11.14,18.74-11.14,11,0,16.48,7.86,21.35,14.79S249.23,31,257.55,31,270,25.11,274.76,18.33s10.4-14.79,21.36-14.79,16.48,7.86,21.35,14.79S326.36,31,334.68,31s12.44-5.86,17.21-12.64,10.4-14.79,21.35-14.79c9.14,0,14.41,5.35,18.74,11.14a6.43,6.43,0,0,0,5.13,2.57H595.36v5.07H397.11a11.54,11.54,0,0,1-9.19-4.6c-4.09-5.47-8.15-9.11-14.68-9.11-8.32,0-12.44,5.85-17.2,12.64S345.64,36,334.68,36Z" transform="translate(0.09 -3.54)"/></svg>