<svg xmlns="http://www.w3.org/2000/svg" id="POZADINA" viewBox="0 0 106.24 83.59"><defs><style>.cls-1{fill:#fbb03b;opacity:.55}</style></defs><title>karta mk</title><path d="M28.45,83.59h-.92a21.09,21.09,0,0,0-3.82-.25h-1.8a3.24,3.24,0,0,1-.09-1.09.08.08,0,0,0,0,0,2,2,0,0,0-.22-.46h0a1.41,1.41,0,0,0-.9-1.55,2.19,2.19,0,0,1-.57-.41.09.09,0,0,0-.08,0h0a5,5,0,0,0-.48.2,1.62,1.62,0,0,1-.75.21h-.05a1.9,1.9,0,0,1-.84-.32,2.06,2.06,0,0,0-1-.34h-.06a5.1,5.1,0,0,0-1.47.59c-.37.18-.76.38-1.08.5h-.2l-.1,0a.63.63,0,0,0-.18.12.57.57,0,0,1-.16.11,1.75,1.75,0,0,1-.4,0,4.6,4.6,0,0,1-1.08-.2l-.27-.07c-.26-.79-.57-1.54-.87-2.26a19.35,19.35,0,0,1-1.21-3.61.08.08,0,0,0,0,0,4.26,4.26,0,0,1-.41-1.46A4.28,4.28,0,0,0,9,71.71,2.19,2.19,0,0,0,7.76,71c-.23-.08-.47-.16-.69-.26a1.6,1.6,0,0,1-.32-.23,1.42,1.42,0,0,0-.34-.25A2.46,2.46,0,0,0,6,70.15a1.4,1.4,0,0,1-.51-.23,2.48,2.48,0,0,1,.34-1.33.14.14,0,0,0,0-.11,5.58,5.58,0,0,0-.74-1.1,5.64,5.64,0,0,1-.59-.82,1,1,0,0,1,0-.2.9.9,0,0,0-.08-.28,5.83,5.83,0,0,0-.48-.7,5.45,5.45,0,0,1-.42-.56l-.36-.61q-.21-.39-.42-.72a4,4,0,0,1-.34-1.44c0-.27-.07-.55-.12-.8l-.08-.32A7.91,7.91,0,0,1,2,60a2.54,2.54,0,0,0-.19-.61,2.72,2.72,0,0,1-.17-.53c-.11-.62-.18-1.18-.24-1.9a.66.66,0,0,1,.27-.06,1.33,1.33,0,0,1,.67.29l.16.1h.08s0,0,.06,0a5.73,5.73,0,0,0,.66-1.56,3.66,3.66,0,0,1,.3-.84.1.1,0,0,0,0-.09.37.37,0,0,1,.07-.1.35.35,0,0,0,.1-.28s0,0,0,0A.68.68,0,0,0,4,54a2.14,2.14,0,0,1,.2-.42.13.13,0,0,0,0-.12.34.34,0,0,0,.08-.17.11.11,0,0,0,0-.08L4,52.92a25.48,25.48,0,0,0-1.81-2A4.28,4.28,0,0,1,2,50a4.41,4.41,0,0,0-.08-.74,3.53,3.53,0,0,0-1.15-1.6A5,5,0,0,1,0,46.8v-.53a1.6,1.6,0,0,0,.28-.59.93.93,0,0,1,.39-.62,2.48,2.48,0,0,1,1.09-.2l.36,0,.07,0A5.71,5.71,0,0,1,3,44.18,3.74,3.74,0,0,0,4.12,43a.06.06,0,0,0,0-.07,5.16,5.16,0,0,0-.62-1.31,4.13,4.13,0,0,1-.69-1.61A4.54,4.54,0,0,1,2.9,39,5.39,5.39,0,0,0,3,37.47a6.85,6.85,0,0,0-.32-1.26,3.53,3.53,0,0,1-.28-1.48,2.52,2.52,0,0,1,.33-.82,1.35,1.35,0,0,0,.28-1,3.91,3.91,0,0,1,.88-.64,4.72,4.72,0,0,0,.75-.51.09.09,0,0,0,0-.1,2,2,0,0,1,0-.26c-.06-.3-.12-.61-.3-.7A4.06,4.06,0,0,0,4.25,30a4.2,4.2,0,0,1-.06-1.33,2.54,2.54,0,0,1,.15-.44,1.61,1.61,0,0,0,.15-.53l.2-.1a3.94,3.94,0,0,1,.83-.39,1.93,1.93,0,0,1,.66.67,2.85,2.85,0,0,0,.48.56l.07,0h0c.26-.12.46-.24.69-.37l.4-.23.27-.19a1.81,1.81,0,0,1,.76-.4h0c.16,0,.27.2.39.38s.29.46.58.46c.52,0,1-.76,1.37-1.32.11-.16.2-.31.27-.39s.25-.28.38-.41a5.49,5.49,0,0,0,.41-.44l.08-.1a1.12,1.12,0,0,0,.35-1.14.26.26,0,0,0-.08-.11.4.4,0,0,0,0-.23,14,14,0,0,0-.34-1.5A10.36,10.36,0,0,1,12,20.57a7.14,7.14,0,0,1,.23-2A10.4,10.4,0,0,0,12.47,17a2.44,2.44,0,0,0,.45-.49,1.81,1.81,0,0,1,.9-.79l.19,0,.27,0a1.43,1.43,0,0,0,.29,0,.78.78,0,0,0,.22,0,1.32,1.32,0,0,0,.62-.51,1.12,1.12,0,0,1,.45-.39l.23,0a3.89,3.89,0,0,1,.82.13l.35.07h0l.06,0a4.68,4.68,0,0,0,.92-1,3.36,3.36,0,0,1,1.33-1.19,10.3,10.3,0,0,1,1.89-.42c.33-.05.68-.1,1-.17l0,0c.56-.43,1.26-1,1.94-1.63.4-.35.81-.71,1.18-1,.2-.18.83-.7,1.12-.7a2.09,2.09,0,0,1,.78.34l.32.19.28.15a4.15,4.15,0,0,0,.85.39,9.24,9.24,0,0,1,1.19,1.5l.1.14a.74.74,0,0,0,.17.18l.13.13a5.36,5.36,0,0,1,.82,2.88.1.1,0,0,0,.1.09h0A10.22,10.22,0,0,0,33,14.64a.91.91,0,0,0,.66.28,2.73,2.73,0,0,0,1.19-.43,3.75,3.75,0,0,1,.62-.29.1.1,0,0,0,.07-.13,4.71,4.71,0,0,0-.32-.81c-.24-.55-.46-1-.22-1.51a6,6,0,0,1,.46-.77c.11-.16.21-.32.31-.48.24-.39.48-.81.74-1.26a29.25,29.25,0,0,1,1.56-2.53h.14a7.13,7.13,0,0,1,1.18.12A7.54,7.54,0,0,0,40.62,7h0a.09.09,0,0,0,.08,0,.13.13,0,0,0,0-.09,1.92,1.92,0,0,0-.24-.5,1.24,1.24,0,0,1-.24-.66,1.55,1.55,0,0,1,.7-1l.16,0a1.43,1.43,0,0,1,.58.18c.15.06.33.14.52.2a3.7,3.7,0,0,0,.48.09,1.76,1.76,0,0,1,.58.14,1.41,1.41,0,0,1,.5.71,1.62,1.62,0,0,0,.25.47.11.11,0,0,0,.08,0h0a12.71,12.71,0,0,0,1.77-.32,10.85,10.85,0,0,1,1.91-.33l.59.4c.35.24.7.49,1.06.72h.05a6.94,6.94,0,0,1,1.65.24h0a.08.08,0,0,0,.07,0,5.82,5.82,0,0,0,.53-.46,2.33,2.33,0,0,1,1.76-.85h.34a.08.08,0,0,0,.07,0,4,4,0,0,0,.75-1A4.15,4.15,0,0,1,55.33,4h.1a.51.51,0,0,1,.22.06.71.71,0,0,0,.31.08h0l.06,0a3.12,3.12,0,0,0,.53-.88c.32-.65.68-1.39,1.25-1.39a.44.44,0,0,1,.16,0c.21,0,.37.38.53.71s.41.86.79,1l.14,0a1.26,1.26,0,0,0,.41-.09h0a1.27,1.27,0,0,1,.43-.09h0a.11.11,0,0,0,.08,0A2.7,2.7,0,0,0,61,2.17c0-.15.09-.3.14-.44a.13.13,0,0,0,0-.06.15.15,0,0,0,0-.08,1.47,1.47,0,0,0,.06-.14.76.76,0,0,1,.13-.24,3.83,3.83,0,0,1,1.34.85l.38.32c.18.14.37.29.55.45a9.94,9.94,0,0,0,1.13.87l.06,0a.12.12,0,0,0,.09-.05.68.68,0,0,1,.64-.3,5.26,5.26,0,0,1,.63.07h0a4.07,4.07,0,0,0,.72.08,1.58,1.58,0,0,0,.45-.06,1.12,1.12,0,0,0,.53-.4c.15-.16.28-.3.46-.31h0A.72.72,0,0,1,68.8,3a.85.85,0,0,0,.29.19h0a.11.11,0,0,0,.07,0,1.35,1.35,0,0,1,.86-.48.8.8,0,0,1,.5.19l.07,0,.05,0a1.64,1.64,0,0,0,.47-.59c.15-.27.29-.52.53-.6h.11a1.77,1.77,0,0,1,.3,0,2.33,2.33,0,0,0,.43.06l.23,0c.38-.09.7-.52,1-.94s.59-.8.88-.8.72.42,1,.73c.15.13.28.25.39.33a4.76,4.76,0,0,1,2,2.35.1.1,0,0,0,.1.07h0l.42,0a1.81,1.81,0,0,1,1.58.89l1,1.15c.44.49.85,1,1.21,1.41a5.93,5.93,0,0,1,.28.87A3.54,3.54,0,0,0,83.19,9a1.7,1.7,0,0,0,.76.48,2,2,0,0,1,.65.39.66.66,0,0,0,.19.42.63.63,0,0,1,.12.18c.09.22.15.48.22.72a3.6,3.6,0,0,0,.39,1.1,4.54,4.54,0,0,0,1.26,1l.45.29,1.23.9A14.5,14.5,0,0,0,92.77,17h.08a1.85,1.85,0,0,1,.69-.16,4.57,4.57,0,0,1,.54.81c.1.17.2.35.31.51a.12.12,0,0,0,.09,0h0a5.75,5.75,0,0,1,1.41-.12h.8l.07.08a2.64,2.64,0,0,0,1.83,1,2.38,2.38,0,0,0,.72-.13c.42.12.43.44.42,1,0,.19,0,.39,0,.6s0,.72,0,1.12a7.13,7.13,0,0,0,.32,2.39,2.39,2.39,0,0,0,.45.67,1.71,1.71,0,0,1,.38.63,1.92,1.92,0,0,1,0,.48,2.84,2.84,0,0,0,0,.41,3.65,3.65,0,0,0,.59,1.58c.09.17.18.32.26.49l.57,1.28a15.79,15.79,0,0,0,1.78,3.36.06.06,0,0,0,.06,0,3.46,3.46,0,0,1,.91.43,5.17,5.17,0,0,0,.74.39,2.2,2.2,0,0,0,.21.83,2.48,2.48,0,0,1,.15.41c-.26.74-.55,1.47-.83,2.18s-.61,1.54-.88,2.35l-.38.15a2.91,2.91,0,0,1-.57.19.12.12,0,0,0-.08.06,2.71,2.71,0,0,0-.23.73,3.86,3.86,0,0,1-.14.54v.05a8.24,8.24,0,0,0,.43,1.33,5.59,5.59,0,0,1,.53,2.07,8.86,8.86,0,0,1-.25,1.79,13.92,13.92,0,0,0-.23,1.44,8,8,0,0,0,.57,3.3.55.55,0,0,0-.19.32.87.87,0,0,1-.07.17,1.4,1.4,0,0,1-.12.18.87.87,0,0,0-.19.47,1.21,1.21,0,0,0,.17.57,1.6,1.6,0,0,1,.19.47,2.58,2.58,0,0,1,0,.68,3.18,3.18,0,0,0,0,.69.09.09,0,0,0,0,.07l0,0A1.71,1.71,0,0,0,104,56c-.11.09-.2.2-.31.31a1.67,1.67,0,0,1-.8.6,5.47,5.47,0,0,1-1.17.11c-.52,0-1.11,0-1.67-.09s-1.17-.1-1.72-.1a7.39,7.39,0,0,0-1,.07l0,0a4.31,4.31,0,0,1-.89.43,6.65,6.65,0,0,0-.85.41.22.22,0,0,0,0,.08c-.07,1.59-.25,3.09-.43,4.55-.1.84-.2,1.71-.28,2.58a.27.27,0,0,0,0,.2l0,0a7.34,7.34,0,0,1-1,2.14h-.18a2,2,0,0,1-1.68-1,2.91,2.91,0,0,0-1-.87l0,0h0a.13.13,0,0,0-.06.07,4.43,4.43,0,0,1-.28.68,3.61,3.61,0,0,0-.37,1.08,4.28,4.28,0,0,0-.71.67c-.35.37-.74.8-1.07.85h-.14a2.22,2.22,0,0,1-.94-.31,4,4,0,0,0-.67-.29h0a13.76,13.76,0,0,0-1.8.4,8.83,8.83,0,0,1-2.22.4,2.42,2.42,0,0,1-.39,0,2.79,2.79,0,0,1-.81-.17,1.21,1.21,0,0,1-.41-.38,1.22,1.22,0,0,0-.57-.47,1.76,1.76,0,0,0-.33,0,3.53,3.53,0,0,0-1,.19,3.54,3.54,0,0,1-.94.18,1.2,1.2,0,0,1-.28,0,2.3,2.3,0,0,1-.45-.6,2,2,0,0,0-.11-.2l0,0a4.82,4.82,0,0,0-1.33-.35l-.67-.13c-.23-.06-.5-.15-.76-.24a5.31,5.31,0,0,0-1.18-.31h-.09a3.36,3.36,0,0,0-1,.21,3,3,0,0,1-1,.21h0a.1.1,0,0,0-.08,0,6.09,6.09,0,0,0-.46.61,2.31,2.31,0,0,1-1.12,1,1.4,1.4,0,0,1-.4.07,2.51,2.51,0,0,1-1.57-1,3.21,3.21,0,0,0-1-.79h0a.09.09,0,0,0-.07,0,6,6,0,0,0-.48.54c-.11.14-.22.27-.34.4a8.88,8.88,0,0,0-3.56,1.55l-.22.14-.3.17C61,70,60,70.54,60.09,71.3a6.57,6.57,0,0,1,0,.8c0,.17,0,.36,0,.57a7.59,7.59,0,0,0-.65.46l-.38.29s0,0-.05.06c-.22,1.11-1,1.58-1.94,2.09a6.79,6.79,0,0,0-1.26.85.11.11,0,0,0,0,.09,4.05,4.05,0,0,1-.05,1,.06.06,0,0,0,0,.06,1.54,1.54,0,0,0-.19,1.08,3.47,3.47,0,0,0-.25.29,1.88,1.88,0,0,1-.33.36c-1.09-.14-2.25-.22-3.37-.3l-.73-.06h0a.12.12,0,0,0-.08,0A5,5,0,0,0,50,80.62l-.06.19c-.39.24-.75.44-1.1.63s-.67.38-1,.6a2.94,2.94,0,0,0-.3.22,1,1,0,0,1-.7.27,1.78,1.78,0,0,1-.31,0,1.67,1.67,0,0,1-1.18-.79,3.4,3.4,0,0,0-.25-.31,3.37,3.37,0,0,1-.28-.38,1.58,1.58,0,0,0-.73-.68,2.15,2.15,0,0,0-.53-.06,5.12,5.12,0,0,0-.77.07,6.21,6.21,0,0,1-.73.07l-.26,0a2.55,2.55,0,0,1-.87-.29,5.18,5.18,0,0,0-.61-.24h0l0,0a10.43,10.43,0,0,0-1.21,1c-.37.31-.74.64-1.14.94a2.37,2.37,0,0,1-1,.39l-.32.07a3.23,3.23,0,0,0-.58.24,2,2,0,0,1-.61.24,4.91,4.91,0,0,0-.78.2,2.36,2.36,0,0,1-.72.16h-.09a1,1,0,0,1-.4-.2A2.19,2.19,0,0,0,33,82.7l-.41-.19a7.88,7.88,0,0,1-1.32-.7l-.06,0a.07.07,0,0,0-.06,0l-1,.62a13.29,13.29,0,0,0-1.69,1.16" class="cls-1"/></svg>