<svg xmlns="http://www.w3.org/2000/svg" viewBox="0 0 144.94 144.94"><defs><style>.cls-1{fill:#0071bc;}.cls-2{fill:gray;}</style></defs><title>logo linija</title><g id="Layer_1" data-name="Layer 1"><path class="cls-1" d="M85.85,76.58l2.53,2.54L32.77,134.73c-1-.64-2.06-1.32-3.07-2Zm-77.17,33a67.61,67.61,0,0,0,4.24,6.66L36.67,92.47,31.22,87ZM17.56,122c.84.94,1.7,1.86,2.6,2.76S22,126.58,23,127.43l97.5-96.91a69.21,69.21,0,0,1,6,7.76L144.94,0,106.66,18.5a68.91,68.91,0,0,1,8.45,6.56Z"/><path class="cls-2" d="M95.09,12.39A68.88,68.88,0,0,0,5.17,102.31Z"/><path class="cls-2" d="M132.55,49.85,42.63,139.76a68.88,68.88,0,0,0,89.92-89.91Z"/></g></svg>