<svg id="Layer_1" data-name="Layer 1" xmlns="http://www.w3.org/2000/svg" viewBox="0 0 595.12 36.76"><defs><style>.cls-1{fill:#c1282d;}</style></defs><path class="cls-1" d="M111.59,1.6c-10.77,0-16.11,9.07-20.82,17.07-4.4,7.47-8.55,14.52-16.37,14.52s-12-7-16.38-14.52C53.31,10.67,48,1.6,37.2,1.6S21.08,10.67,16.37,18.67C12,26.14,7.82,33.19,0,33.19v5.17c10.78,0,16.11-9.07,20.82-17.07,4.4-7.47,8.55-14.52,16.38-14.52s12,7.05,16.37,14.52c4.71,8,10,17.07,20.83,17.07s16.11-9.07,20.82-17.07c4.4-7.47,8.55-14.52,16.37-14.52s12,7.05,16.38,14.52a76.52,76.52,0,0,0,5.91,9V21.13c-.49-.81-1-1.63-1.46-2.46C127.71,10.67,122.37,1.6,111.59,1.6Z" transform="translate(0 -1.6)"/><path class="cls-1" d="M578.75,18.67c-4.71-8-10-17.07-20.82-17.07s-16.11,9.07-20.82,17.07c-4.4,7.47-8.55,14.52-16.37,14.52s-12-7-16.38-14.52c-4.71-8-10-17.07-20.82-17.07s-16.11,9.07-20.82,17.07c-.49.84-1,1.67-1.48,2.49v9.18a74.88,74.88,0,0,0,5.93-9c4.4-7.47,8.55-14.52,16.37-14.52s12,7.05,16.37,14.52c4.71,8,10,17.07,20.83,17.07s16.11-9.07,20.82-17.07C546,13.82,550.1,6.77,557.93,6.77s12,7.05,16.37,14.52c4.71,8,10.05,17.07,20.82,17.07V33.19C587.3,33.19,583.15,26.14,578.75,18.67Z" transform="translate(0 -1.6)"/><path class="cls-1" d="M363,29.28c-2.81-2.74-5.09-6.62-7.44-10.61-4.71-8-10-17.07-20.82-17.07S318.66,10.67,314,18.67c-4.4,7.47-8.55,14.52-16.38,14.52s-12-7-16.37-14.52c-4.71-8-10.05-17.07-20.82-17.07s-16.12,9.07-20.82,17.07c-2.36,4-4.65,7.89-7.47,10.63v6.55c5.25-3.25,8.73-9.15,11.92-14.56,4.39-7.47,8.54-14.52,16.37-14.52s12,7.05,16.37,14.52c4.71,8,10.05,17.07,20.82,17.07s16.12-9.07,20.83-17.07c4.39-7.47,8.55-14.52,16.37-14.52s12,7.05,16.37,14.52c3.18,5.4,6.66,11.29,11.89,14.55Z" transform="translate(0 -1.6)"/></svg>