<svg xmlns="http://www.w3.org/2000/svg" id="Layer_1" data-name="Layer 1" viewBox="0 0 626.03 34.6"><defs><style>.cls-1{fill:#c1282d}</style></defs><path d="M611.62,34.6c-11.74,0-17.68-8.42-22.92-15.85S579,5,569.88,5s-13.62,6.36-18.81,13.72S539.88,34.6,528.15,34.6s-17.68-8.42-22.92-15.85S495.55,5,486.42,5,472.8,11.39,467.6,18.75,456.42,34.6,444.68,34.6,427,26.18,421.76,18.75,412.08,5,403,5s-13.62,6.36-18.81,13.72S373,34.6,361.22,34.6s-17.68-8.42-22.92-15.85S328.61,5,319.48,5s-13.62,6.36-18.81,13.72S289.48,34.6,277.75,34.6s-17.68-8.42-22.92-15.85S245.14,5,236,5s-13.62,6.36-18.81,13.72S206,34.6,194.27,34.6s-17.67-8.42-22.92-15.85S161.67,5,152.54,5s-13.62,6.36-18.81,13.72S122.54,34.6,110.8,34.6,93.13,26.18,87.88,18.75,78.2,5,69.07,5,55.45,11.39,50.25,18.75,39.07,34.6,27.33,34.6,9.65,26.18,4.41,18.75-5.28,5-14.41,5V0C-2.67,0,3.27,8.42,8.51,15.85S18.2,29.57,27.33,29.57,41,23.21,46.14,15.85,57.33,0,69.07,0,86.75,8.42,92,15.85s9.68,13.72,18.81,13.72,13.62-6.36,18.82-13.72S140.8,0,152.54,0s17.68,8.42,22.92,15.85,9.68,13.72,18.81,13.72,13.62-6.36,18.82-13.72S224.27,0,236,0s17.68,8.42,22.92,15.85,9.68,13.72,18.82,13.72,13.61-6.36,18.81-13.72S307.74,0,319.48,0s17.68,8.42,22.92,15.85,9.69,13.72,18.82,13.72S374.84,23.21,380,15.85,391.22,0,403,0s17.68,8.42,22.92,15.85,9.68,13.72,18.81,13.72,13.62-6.36,18.82-13.72S474.68,0,486.42,0s17.67,8.42,22.92,15.85S519,29.57,528.15,29.57,541.77,23.21,547,15.85,558.15,0,569.88,0s17.68,8.42,22.92,15.85,9.69,13.72,18.82,13.72Z" class="cls-1" transform="translate(14.41)"/></svg>